<?xml version="1.0" encoding="utf-8"?>
<!-- Generator: Adobe Illustrator 25.4.1, SVG Export Plug-In . SVG Version: 6.00 Build 0)  -->
<svg version="1.1" id="Illustrator_1_" xmlns="http://www.w3.org/2000/svg" xmlns:xlink="http://www.w3.org/1999/xlink" x="0px"
	 y="0px" viewBox="0 0 512 512" style="enable-background:new 0 0 512 512;" xml:space="preserve">
<style type="text/css">
	.st0{fill:#FFAA2B;}
	.st1{fill:#3B3323;}
</style>
<g id="Frame_1_">
	<g>
		<rect class="st0" width="512" height="512"/>
	</g>
</g>
<g id="Background_1_">
	<g>
		<rect x="39" y="41.1" class="st1" width="433" height="429.8"/>
	</g>
</g>
<g id="Ai">
	<g>
		<path class="st0" d="M193.9,301.9l-18.2,61.5h-39.8l67.7-216.9h49.2l68.6,216.9h-41.4L261,301.9H193.9z M254.4,272l-16.6-53.4
			c-4.1-13.2-7.5-28-10.7-40.6h-0.6c-3.1,12.6-6.3,27.7-10,40.6L200.2,272H254.4z"/>
		<path class="st0" d="M377.9,162.8c0,11.9-8.5,21.2-21.9,21.2c-12.9,0-21.3-9.3-21.3-21.2c0-12.2,8.8-21.6,21.6-21.6
			C369.5,141.3,377.6,150.6,377.9,162.8z M336.9,363.4V206.6h38.9v156.7L336.9,363.4L336.9,363.4z"/>
	</g>
</g>
</svg>
