<?xml version="1.0" encoding="utf-8"?>
<!-- Generator: Adobe Illustrator 25.4.1, SVG Export Plug-In . SVG Version: 6.00 Build 0)  -->
<svg version="1.1" id="Слой_1" xmlns="http://www.w3.org/2000/svg" xmlns:xlink="http://www.w3.org/1999/xlink" x="0px" y="0px"
	 viewBox="0 0 280.6 280.6" style="enable-background:new 0 0 280.6 280.6;" xml:space="preserve">
<style type="text/css">
	.st0{fill:#525967;}
	.st1{fill:#454B57;}
	.st2{fill:#0ACF83;}
	.st3{fill:#A259FF;}
	.st4{fill:#F24E1E;}
	.st5{fill:#FF7262;}
	.st6{fill:#1ABCFE;}
	.st7{fill:none;}
</style>
<g id="Layer_2">
	<g id="Layer_1_copy">
		<g id="Figma_icon">
			<g id="ads_manager">
				<path class="st0" d="M41,0h198.7c22.5,0,41,18.4,41,41v198.7c0,22.5-18.4,41-41,41H41c-22.5,0-41-18.4-41-41V41
					C0,18.4,18.4,0,41,0z"/>
				<path class="st1" d="M239.6,12.3c16.4,0,28.7,12.3,28.7,28.7v198.7c0,16.4-12.3,28.7-28.7,28.7H41c-16.4,0-28.7-12.3-28.7-28.7
					V41c0-16.4,12.3-28.7,28.7-28.7l0,0H239.6 M239.6,0H41C18.4,0,0,18.4,0,41v198.7c0,22.5,18.4,41,41,41h198.7
					c22.5,0,41-18.4,41-41V41C280.6,18.4,262.1,0,239.6,0z"/>
				<path id="path0_fill" class="st2" d="M106.5,245.8c18.4,0,34.8-16.4,34.8-34.8v-34.8h-34.8c-18.4,0-34.8,16.4-34.8,34.8
					C69.6,229.4,86,245.8,106.5,245.8z"/>
				<path id="path1_fill" class="st3" d="M69.6,141.3c0-18.4,16.4-34.8,34.8-34.8h34.8v69.6h-32.8C86,176.1,69.6,159.7,69.6,141.3z"
					/>
				<path id="path1_fill-2" class="st4" d="M69.6,69.6c0-18.4,16.4-34.8,34.8-34.8h34.8v69.6h-32.8C86,106.5,69.6,90.1,69.6,69.6z"
					/>
				<path id="path2_fill" class="st5" d="M141.3,34.8h34.8c18.4,0,34.8,16.4,34.8,34.8s-16.4,34.8-34.8,34.8l0,0h-34.8V34.8z"/>
				<path id="path3_fill" class="st6" d="M210.9,141.3c0,18.4-16.4,34.8-34.8,34.8s-34.8-16.4-34.8-34.8s16.4-34.8,34.8-34.8l0,0
					C194.6,106.5,210.9,120.8,210.9,141.3z"/>
			</g>
			<rect x="-114.7" y="-114.7" class="st7" width="512" height="512"/>
		</g>
	</g>
</g>
</svg>
