<?xml version="1.0" encoding="utf-8"?>
<!-- Generator: Adobe Illustrator 25.4.1, SVG Export Plug-In . SVG Version: 6.00 Build 0)  -->
<svg version="1.1" id="Слой_1" xmlns="http://www.w3.org/2000/svg" xmlns:xlink="http://www.w3.org/1999/xlink" x="0px" y="0px"
	 viewBox="0 0 24.1 24" style="enable-background:new 0 0 24.1 24;" xml:space="preserve">
<style type="text/css">
	.st0{fill:#507EC0;}
</style>
<path class="st0" d="M12,0C5.4,0,0,5.4,0,12s5.4,12,12,12s12-5.4,12-12S18.6,0,12,0z M18.4,16l-1.9,0c0,0-0.4,0.1-0.9-0.3
	c-0.7-0.5-1.4-1.7-1.9-1.6c-0.5,0.2-0.5,1.3-0.5,1.3s0,0.2-0.1,0.3c-0.1,0.1-0.4,0.1-0.4,0.1h-0.8c0,0-1.8,0.2-3.5-1.5
	C6.6,12.5,5,8.8,5,8.8S4.9,8.6,5,8.5c0.1-0.1,0.4-0.1,0.4-0.1l2,0c0,0,0.2,0,0.3,0.1C7.9,8.6,8,8.7,8,8.7s0.3,0.8,0.8,1.6
	c0.8,1.4,1.2,1.8,1.5,1.6c0.4-0.2,0.3-2,0.3-2s0-0.7-0.2-1c-0.2-0.2-0.5-0.3-0.6-0.3c-0.1,0,0.1-0.3,0.3-0.4C10.3,8,11,8,11.7,8
	c0.6,0,0.8,0,1,0.1c0.7,0.2,0.5,0.8,0.5,2.4c0,0.5-0.1,1.2,0.3,1.4c0.2,0.1,0.5,0,1.5-1.6c0.4-0.8,0.8-1.6,0.8-1.6s0.1-0.2,0.2-0.2
	c0.1-0.1,0.3,0,0.3,0l2.1,0c0,0,0.6-0.1,0.7,0.2c0.1,0.3-0.2,1-1.1,2.1c-1.4,1.9-1.6,1.7-0.4,2.8c1.1,1,1.4,1.5,1.4,1.6
	C19.3,15.9,18.4,16,18.4,16z"/>
</svg>
