<?xml version="1.0" encoding="utf-8"?>
<!-- Generator: Adobe Illustrator 25.4.1, SVG Export Plug-In . SVG Version: 6.00 Build 0)  -->
<svg version="1.1" id="Layer_1" xmlns="http://www.w3.org/2000/svg" xmlns:xlink="http://www.w3.org/1999/xlink" x="0px" y="0px"
	 viewBox="0 0 47.8 47.6" style="enable-background:new 0 0 47.8 47.6;" xml:space="preserve">
<style type="text/css">
	.st0{fill:#507EC0;}
</style>
<g>
	<path class="st0" d="M36.4,12.5C36.4,5.6,30.8,0,23.9,0S11.4,5.6,11.4,12.5c0,9.9,12.5,24.6,12.5,24.6S36.4,22.4,36.4,12.5z
		 M17.7,11.8c0-3.4,2.8-6.2,6.2-6.2s6.2,2.8,6.2,6.2S27.3,18,23.9,18S17.7,15.2,17.7,11.8z"/>
	<circle class="st0" cx="23.9" cy="11.8" r="3"/>
	<path class="st0" d="M31,32.8c-1,1.5-2,2.8-2.8,3.8c7.9,0.5,13.1,2.2,15,3.5c-2.3,1.5-9,3.6-19.3,3.6S6.8,41.5,4.6,40
		c1.9-1.3,7.1-3,15-3.5c-0.8-1-1.8-2.3-2.8-3.8C7.1,33.7,0,36.6,0,40c0,4.2,10.7,7.6,23.9,7.6c13.2,0,23.9-3.4,23.9-7.6
		C47.8,36.6,40.7,33.7,31,32.8z"/>
</g>
</svg>
