<?xml version="1.0" encoding="utf-8"?>
<!-- Generator: Adobe Illustrator 25.4.1, SVG Export Plug-In . SVG Version: 6.00 Build 0)  -->
<svg version="1.1" id="Слой_1" xmlns="http://www.w3.org/2000/svg" xmlns:xlink="http://www.w3.org/1999/xlink" x="0px" y="0px"
	 viewBox="0 0 40 40" style="enable-background:new 0 0 40 40;" xml:space="preserve">
<style type="text/css">
	.st0{fill:#507EC0;}
</style>
<path class="st0" d="M31,40H9c-5,0-9-4-9-9V9c0-5,4-9,9-9h22c5,0,9,4,9,9v22C40,36,36,40,31,40z M29.6,32c0.8,0,3.6-1.4,3.4-5
	c0-0.6-0.4-1.2-0.9-1.6c-0.6-0.4-1.6-1-2.8-1.8c-1.1-0.7-2.6-0.8-3.8-0.1L23.3,25c-0.6,0.4-1.3,0.5-1.9,0.2c-1-0.4-2.5-1.2-3.9-2.6
	s-2.2-2.9-2.6-3.9c-0.3-0.6-0.2-1.4,0.2-1.9l1.5-2.1c0.7-1.2,0.6-2.7-0.1-3.8C15.6,9.5,15,8.6,14.6,8C14.2,7.4,13.6,7.1,13,7
	c-3.6-0.2-5,2.6-5,3.4c0,0.6-0.8,7.2,6.8,14.8S29,32,29.6,32z"/>
</svg>
