<?xml version="1.0" encoding="utf-8"?>
<!-- Generator: Adobe Illustrator 25.4.1, SVG Export Plug-In . SVG Version: 6.00 Build 0)  -->
<svg version="1.1" id="Слой_1" xmlns="http://www.w3.org/2000/svg" xmlns:xlink="http://www.w3.org/1999/xlink" x="0px" y="0px"
	 viewBox="0 0 513 512" style="enable-background:new 0 0 513 512;" xml:space="preserve">
<style type="text/css">
	.st0{fill:#FF26BE;}
	.st1{fill:#2E001F;}
	.st2{fill:#FFD9F2;}
</style>
<g id="_x33__x2C__XD_x2C__Adobe">
	<g>
		<rect x="1" y="0" class="st0" width="512" height="512"/>
		<rect x="23.5" y="22.5" class="st1" width="466.9" height="466.9"/>
		<g>
			<g>
				<path class="st2" d="M266.8,137.1h-40l-42.9,89.8l-43.5-89.8H99.1l58.3,116.6L97.1,373h40.7l43.7-91.5l44.2,91.5h44.1
					l-62.2-120.8L266.8,137.1z M377.3,137.1v60c0,0-6.9,0-11.5,0c-39.3,0-86.9,25.4-86.9,90.1c0,50.1,25.4,87.7,79.4,87.7
					c39.8,0,58.5-13.8,58.5-13.8V137.1H377.3z M377.3,340.5c0,0-4.6,2-15.3,2c-10.7,0-43.7-4.7-43.7-57c0-52.3,37.9-56.5,47-56.5
					c9.1,0,12,2.6,12,2.6L377.3,340.5L377.3,340.5z"/>
			</g>
		</g>
	</g>
</g>
<g id="Layer_1">
</g>
</svg>
